<svg width="58" height="54" viewBox="0 0 58 54" fill="none" xmlns="http://www.w3.org/2000/svg">
<path d="M0 32.5403C0 14.8672 14.3269 0.540283 32 0.540283H58V41.5403C58 48.1677 52.6274 53.5403 46 53.5403H0V32.5403Z" fill="white"/>
<path d="M29 14.2069C21.64 14.2069 15.6666 20.1802 15.6666 27.5402C15.6666 34.9002 21.64 40.8736 29 40.8736C36.36 40.8736 42.3333 34.9002 42.3333 27.5402C42.3333 20.1802 36.36 14.2069 29 14.2069ZM34.3733 25.1403L28.1466 31.3536C27.9599 31.5536 27.7066 31.6469 27.4399 31.6469C27.1866 31.6469 26.9333 31.5536 26.7333 31.3536L23.6266 28.2469C23.24 27.8603 23.24 27.2202 23.6266 26.8335C24.0133 26.4469 24.6533 26.4469 25.04 26.8335L27.4399 29.2336L32.96 23.7269C33.3466 23.3269 33.9866 23.3269 34.3733 23.7269C34.76 24.1136 34.76 24.7403 34.3733 25.1403Z" fill="#6DD54C"/>
</svg>
