<svg width="58" height="53" viewBox="0 0 58 53" fill="none" xmlns="http://www.w3.org/2000/svg">
<path d="M0 32C0 14.3269 14.3269 0 32 0H58V41C58 47.6274 52.6274 53 46 53H0V32Z" fill="white"/>
<path d="M32 14.6667C24.64 14.6667 18.6666 20.64 18.6666 28C18.6666 35.36 24.64 41.3334 32 41.3334C39.36 41.3334 45.3333 35.36 45.3333 28C45.3333 20.64 39.36 14.6667 32 14.6667ZM36.6666 29H33V32.6667C33 33.2134 32.5466 33.6667 32 33.6667C31.4533 33.6667 31 33.2134 31 32.6667V29H27.3333C26.7866 29 26.3333 28.5467 26.3333 28C26.3333 27.4534 26.7866 27 27.3333 27H31V23.3334C31 22.7867 31.4533 22.3334 32 22.3334C32.5466 22.3334 33 22.7867 33 23.3334V27H36.6666C37.2133 27 37.6666 27.4534 37.6666 28C37.6666 28.5467 37.2133 29 36.6666 29Z" fill="#161A20"/>
</svg>
