<svg width="18" height="18" viewBox="0 0 18 18" fill="none" xmlns="http://www.w3.org/2000/svg">
<path d="M15.8751 9.5015L10.9175 14.4591C10.7794 14.5973 10.598 14.6667 10.4167 14.6667C10.2354 14.6667 10.054 14.5973 9.91587 14.4591C9.63892 14.1822 9.63892 13.7345 9.91587 13.4575L13.6651 9.70833H2.62502C2.23331 9.70833 1.91669 9.391 1.91669 9C1.91669 8.609 2.23331 8.29166 2.62502 8.29166H13.6651L9.91587 4.54248C9.63892 4.26552 9.63892 3.81781 9.91587 3.54085C10.1928 3.26389 10.6405 3.26389 10.9175 3.54085L15.8751 8.49849C15.941 8.56437 15.9928 8.64223 16.0289 8.72936C16.1004 8.90219 16.1004 9.0978 16.0289 9.27064C15.9928 9.35776 15.941 9.43563 15.8751 9.5015Z" fill="#161A20"/>
</svg>
