<svg width="22" height="16" viewBox="0 0 22 16" fill="none" xmlns="http://www.w3.org/2000/svg">
<path d="M0.900024 0.799988V2.59999H13.5V6.19999V7.99999V10.7H8.29866C7.80449 10.1516 7.09645 9.79999 6.30002 9.79999C5.5036 9.79999 4.79556 10.1516 4.30139 10.7H3.60002V9.79999L5.40002 7.99999H1.80002V12.5H3.60002C3.60002 13.9913 4.80872 15.2 6.30002 15.2C7.79132 15.2 9.00002 13.9913 9.00002 12.5H14.4C14.4 13.9913 15.6087 15.2 17.1 15.2C18.5913 15.2 19.8 13.9913 19.8 12.5H20.7H21.6V7.99999L19.1479 3.09745C18.9958 2.79235 18.6857 2.59999 18.3446 2.59999H15.3V0.799988H0.900024ZM1.80002 4.39999V6.19999H8.10002V4.39999H1.80002ZM15.3 4.39999H17.7873L18.6873 6.19999H15.3V4.39999ZM15.3 7.99999H19.5873L19.8 8.42538V10.7H19.0987C18.6045 10.1516 17.8965 9.79999 17.1 9.79999C16.4051 9.79999 15.7785 10.0702 15.3 10.5014V7.99999ZM6.30002 11.375C6.92012 11.375 7.42502 11.8799 7.42502 12.5C7.42502 13.1201 6.92012 13.625 6.30002 13.625C5.67992 13.625 5.17502 13.1201 5.17502 12.5C5.17502 11.8799 5.67992 11.375 6.30002 11.375ZM17.1 11.375C17.7201 11.375 18.225 11.8799 18.225 12.5C18.225 13.1201 17.7201 13.625 17.1 13.625C16.4799 13.625 15.975 13.1201 15.975 12.5C15.975 11.8799 16.4799 11.375 17.1 11.375Z" fill="#FF7622"/>
</svg>
