<svg width="19" height="20" viewBox="0 0 19 20" fill="none" xmlns="http://www.w3.org/2000/svg">
<g clip-path="url(#clip0_13_165)">
<path d="M17.0749 10.8867C17.1119 10.5817 17.131 10.2711 17.131 9.95606C17.131 9.83125 17.128 9.70715 17.1221 9.58381L13.9517 9.58381C13.9618 9.70656 13.9669 9.8307 13.9669 9.95606C13.9669 10.2752 13.9335 10.5865 13.8699 10.8867H17.0749ZM16.7395 12.3757H13.2555C12.4602 13.6075 11.0753 14.423 9.5 14.423C7.92466 14.423 6.53978 13.6075 5.74449 12.3757H2.26055C3.27229 15.4042 6.13122 17.5871 9.5 17.5871C12.8688 17.5871 15.7277 15.4042 16.7395 12.3757ZM16.9024 8.09484C16.0716 4.77994 13.0725 2.32504 9.5 2.32504C5.92752 2.32504 2.92841 4.77994 2.09758 8.09484H5.4381C6.14388 6.55707 7.69723 5.48912 9.5 5.48912C11.3028 5.48912 12.8561 6.55707 13.5619 8.09484H16.9024ZM1.92516 10.8867H5.13014C5.06653 10.5865 5.03307 10.2752 5.03307 9.95606C5.03307 9.8307 5.03823 9.70656 5.04836 9.58381H1.8779C1.87198 9.70715 1.86898 9.83125 1.86898 9.95606C1.86898 10.2711 1.88807 10.5817 1.92516 10.8867ZM9.5 19.0761C4.46317 19.0761 0.380005 14.9929 0.380005 9.95606C0.380005 4.91922 4.46317 0.83606 9.5 0.83606C14.5368 0.83606 18.62 4.91922 18.62 9.95606C18.62 14.9929 14.5368 19.0761 9.5 19.0761ZM9.5 12.934C11.1447 12.934 12.478 11.6007 12.478 9.95606C12.478 8.31138 11.1447 6.9781 9.5 6.9781C7.85532 6.9781 6.52205 8.31138 6.52205 9.95606C6.52205 11.6007 7.85532 12.934 9.5 12.934Z" fill="#686B78"/>
</g>
<defs>
<clipPath id="clip0_13_165">
<rect width="19" height="19" fill="white" transform="translate(0 0.0760498)"/>
</clipPath>
</defs>
</svg>
