<svg width="24" height="25" viewBox="0 0 24 25" fill="none" xmlns="http://www.w3.org/2000/svg">
<path d="M12 2.82608C7.175 2.82608 3.25 6.75108 3.25 11.5761C3.25 16.6941 7.94699 19.796 11.055 21.849L11.584 22.2001C11.71 22.2841 11.855 22.3261 12 22.3261C12.145 22.3261 12.29 22.2841 12.416 22.2001L12.945 21.849C16.053 19.796 20.75 16.6941 20.75 11.5761C20.75 6.75108 16.825 2.82608 12 2.82608ZM12.119 20.5971L12 20.6762L11.881 20.5971C8.871 18.6091 4.75 15.8871 4.75 11.5761C4.75 7.57808 8.002 4.32608 12 4.32608C15.998 4.32608 19.25 7.57808 19.25 11.5761C19.25 15.8871 15.128 18.6101 12.119 20.5971ZM12 8.32608C10.208 8.32608 8.75 9.78408 8.75 11.5761C8.75 13.3681 10.208 14.8261 12 14.8261C13.792 14.8261 15.25 13.3681 15.25 11.5761C15.25 9.78408 13.792 8.32608 12 8.32608ZM12 13.3261C11.035 13.3261 10.25 12.5411 10.25 11.5761C10.25 10.6111 11.035 9.82608 12 9.82608C12.965 9.82608 13.75 10.6111 13.75 11.5761C13.75 12.5411 12.965 13.3261 12 13.3261Z" fill="#686B78"/>
</svg>
