<svg width="130" height="130" viewBox="0 0 130 130" fill="none" xmlns="http://www.w3.org/2000/svg">
<g clip-path="url(#clip0_2228_933)">
<path d="M16.2344 118C15.3594 116.906 14.9219 115.484 14.9219 113.734C14.9219 112.312 15.1406 111.383 15.5781 110.945L75.9531 19.7266H47.8984C43.9609 19.7266 40.6797 20.1094 38.0547 20.875C35.5391 21.6406 33.4609 23.0078 31.8203 24.9766C30.7266 26.2891 29.8516 27.4375 29.1953 28.4219C28.6484 29.2969 28.1562 30.3359 27.7188 31.5391C27.2812 32.6328 26.625 34.2734 25.75 36.4609L24.9297 38.5938C24.8203 39.25 24.1094 39.5781 22.7969 39.5781C19.625 39.5781 17.8203 39.3594 17.3828 38.9219C20.0078 24.9219 21.6484 15.0781 22.3047 9.39062C24.9297 10.0469 33.7891 10.375 48.8828 10.375H66.7656C71.7969 10.375 77.4844 10.2656 83.8281 10.0469C90.1719 9.71875 97.1719 9.28125 104.828 8.73438C105.156 8.84375 105.484 9.55469 105.812 10.8672C106.25 12.1797 106.469 13.2734 106.469 14.1484L46.5859 104.547C45.8203 105.641 45.4375 106.461 45.4375 107.008C45.4375 108.102 46.2031 108.648 47.7344 108.648H73.8203C81.4766 108.648 87.7109 106.844 92.5234 103.234C97.4453 99.5156 100.836 94.9219 102.695 89.4531C103.023 88.7969 103.734 88.4688 104.828 88.4688C107.453 88.4688 109.148 88.7969 109.914 89.4531C109.258 91.3125 108.328 93.8828 107.125 97.1641C106.031 100.445 105.156 103.07 104.5 105.039C103.844 107.008 103.133 109.25 102.367 111.766C101.711 114.172 101.273 116.25 101.055 118H16.2344Z" fill="#EC692D"/>
<path d="M90.8593 53.5202C91.8559 45.3572 92.946 37.2012 93.9478 29.0389C94.1502 28.2343 96.3147 28.3294 96.2265 29.1925C96.2524 35.0917 96.3459 40.9913 96.3407 46.8897C96.377 49.6766 96.4081 52.4597 96.4081 55.2465C96.3407 55.5501 96.4652 55.861 96.7507 56.0987C97.4152 56.4973 98.3859 56.5229 99.0917 56.1572C99.4655 55.9378 99.4343 55.5574 99.4551 55.2465C99.6627 46.7068 99.8911 38.1636 100.145 29.624V29.6276C100.135 29.3826 100.171 29.1376 100.26 28.8998C100.54 28.6109 100.997 28.4317 101.49 28.4171C101.983 28.3988 102.461 28.5487 102.777 28.8157C102.907 29.1156 102.948 29.4265 102.897 29.7337C102.974 32.5571 102.917 35.3805 102.98 38.2039C103.047 43.9568 103.115 49.7134 103.125 55.4667C103.083 55.8763 103.457 56.2493 104.018 56.3627C104.713 56.5492 105.502 56.4834 106.115 56.1835C106.411 55.9604 106.546 55.6605 106.494 55.3569C106.525 46.7441 106.582 38.1345 106.67 29.5256C106.691 29.2403 106.624 28.8929 106.961 28.6808L106.966 28.6844C107.454 28.3991 108.118 28.3223 108.71 28.4833C109.141 28.5857 109.437 28.8673 109.442 29.1891C109.494 31.3688 109.561 33.5485 109.634 35.732C109.66 38.9504 109.795 42.1651 109.811 45.3839C109.899 48.4925 109.977 51.5975 110.013 54.7062L110.008 54.7098C110.003 55.0682 110.039 55.4267 110.127 55.7814C110.61 56.6884 113.148 56.6555 113.19 55.5693C113.19 51.7803 113.221 47.9951 113.231 44.2059C113.314 42.6735 113.211 41.1412 113.294 39.6087C113.273 36.1014 113.314 32.5941 113.351 29.0908C113.506 28.2935 115.609 28.2825 115.692 29.109C115.853 30.7145 116.097 32.3201 116.273 33.9256C117.088 40.3185 117.815 46.7149 118.656 53.1039C118.848 54.8558 119.206 56.6003 119.175 58.3631L119.18 58.3594C119.289 59.9284 118.957 61.501 118.194 62.9786C117.275 64.745 115.521 66.2335 113.226 67.199C112.666 67.4185 112.048 67.5647 111.503 67.8061C110.195 68.384 109.25 69.2946 108.876 70.3479C108.715 70.9184 108.679 71.5036 108.762 72.0815C109.016 76.9749 109.291 81.8682 109.598 86.762C110.101 96.4504 110.62 106.134 111.155 115.822H111.16C111.025 117.051 110.091 118.167 108.627 118.843C107.314 119.436 105.746 119.692 104.199 119.571C101.236 119.451 98.8686 117.79 98.6818 115.705C98.8842 111.92 99.0192 108.131 99.2424 104.346C99.8082 93.4834 100.255 82.6181 100.789 71.7529C100.857 71.3067 100.841 70.8568 100.743 70.4143C100.327 69.1087 99.0452 68.0224 97.2958 67.4994C94.0464 66.3364 91.7054 64.2152 90.9112 61.71C90.2468 59 90.2312 56.2314 90.8593 53.5214L90.8593 53.5202Z" fill="#B0B0B0"/>
</g>
<defs>
<clipPath id="clip0_2228_933">
<rect width="130" height="130" fill="white"/>
</clipPath>
</defs>
</svg>
