<svg width="19" height="20" viewBox="0 0 19 20" fill="none" xmlns="http://www.w3.org/2000/svg">
<g clip-path="url(#clip0_13_168)">
<path d="M8.42987 2.7761L7.30234 3.59548C6.93897 3.86089 6.50078 4.00339 6.04953 4.00339H4.65303C4.42384 4.00339 4.22137 4.15064 4.15131 4.36735L3.71906 5.69617C3.57953 6.12426 3.30878 6.49654 2.946 6.75898L1.81491 7.58132C1.63025 7.71551 1.55247 7.95301 1.62312 8.16973L2.05537 9.50032C2.19312 9.92723 2.19312 10.3862 2.05478 10.8131L1.62312 12.1413C1.55247 12.3586 1.62966 12.5967 1.81491 12.7315L2.94659 13.5533C3.30878 13.8175 3.57834 14.1886 3.71847 14.6161L4.15072 15.9461C4.22078 16.1628 4.42325 16.31 4.65184 16.31H6.04834C6.499 16.31 6.93719 16.4525 7.29937 16.7168L8.4275 17.5367C8.61334 17.6715 8.8645 17.6715 9.04975 17.5373L10.1779 16.7179C10.5418 16.4525 10.9788 16.31 11.4307 16.31H12.8272C13.0552 16.31 13.2583 16.1628 13.3289 15.9449L13.7606 14.6179C13.8989 14.1909 14.1691 13.8187 14.5336 13.5527L15.6641 12.7315C15.8488 12.5973 15.9266 12.3592 15.8559 12.1419L15.4237 10.8125C15.2859 10.3862 15.2859 9.92782 15.4242 9.49854L15.8559 8.16973C15.9266 7.9536 15.8488 7.71551 15.6635 7.58073L14.5348 6.75957C14.1702 6.49535 13.8995 6.12189 13.7618 5.69498L13.3301 4.36735C13.2594 4.15004 13.0564 4.00279 12.8284 4.00279H11.4319C10.9806 4.00279 10.543 3.86089 10.1808 3.59607L9.05094 2.77551C8.86509 2.64073 8.61394 2.64132 8.42928 2.77492L8.42987 2.7761ZM9.99084 1.48114L11.1231 2.30348C11.2128 2.36879 11.3197 2.40323 11.4325 2.40323H12.829C13.7499 2.40323 14.5669 2.99698 14.8525 3.87276L15.2847 5.20335C15.3186 5.30845 15.3851 5.40048 15.4753 5.46579L16.6046 6.28695C17.3516 6.82845 17.6639 7.78973 17.3789 8.66551L16.9478 9.99195C16.9134 10.1 16.9134 10.2146 16.9472 10.3197L17.3789 11.6479C17.6639 12.5249 17.3516 13.4862 16.6052 14.0271L15.4771 14.8464C15.3863 14.9129 15.3192 15.0056 15.2847 15.1119L14.8531 16.4401C14.5681 17.317 13.7511 17.9108 12.8296 17.9108H11.4331C11.3202 17.9108 11.2134 17.9452 11.1225 18.0117L9.99203 18.8329C9.24628 19.3738 8.23691 19.3738 7.49056 18.8323L6.36066 18.0105C6.27159 17.9452 6.16353 17.9108 6.05131 17.9108H4.65481C3.73212 17.9108 2.91453 17.3164 2.63131 16.4401L2.20025 15.1136C2.16522 15.0068 2.09753 14.9129 2.00787 14.8476L0.878562 14.0277C0.131625 13.4862 -0.180688 12.5255 0.104312 11.6479L0.535968 10.3209C0.570406 10.2146 0.570406 10.0994 0.536562 9.99373L0.104906 8.6661C-0.180688 7.78973 0.132218 6.82845 0.877969 6.28754L2.00906 5.4652C2.09872 5.39989 2.16581 5.30785 2.20084 5.20157L2.6325 3.87454C2.91631 2.99817 3.73391 2.40382 4.656 2.40382H6.0525C6.16472 2.40382 6.27278 2.36879 6.36303 2.30289L7.49234 1.48173C8.23809 0.940823 9.24747 0.940823 9.99322 1.48173L9.99084 1.48114ZM11.2603 14.733C10.128 14.733 9.21006 13.8151 9.21006 12.6828C9.21006 11.5505 10.128 10.6326 11.2603 10.6326C12.3926 10.6326 13.3105 11.5505 13.3105 12.6828C13.3105 13.8151 12.3926 14.733 11.2603 14.733ZM11.2603 13.1329C11.5091 13.1329 11.7103 12.9316 11.7103 12.6828C11.7103 12.434 11.5091 12.2328 11.2603 12.2328C11.0115 12.2328 10.8102 12.434 10.8102 12.6828C10.8102 12.9316 11.0115 13.1329 11.2603 13.1329ZM6.25972 9.71407C5.12744 9.71407 4.2095 8.79614 4.2095 7.66385C4.2095 6.53157 5.12744 5.61364 6.25972 5.61364C7.392 5.61364 8.30994 6.53157 8.30994 7.66385C8.30994 8.79614 7.392 9.71407 6.25972 9.71407ZM6.25972 8.11451C6.5085 8.11451 6.70978 7.91323 6.70978 7.66445C6.70978 7.41567 6.5085 7.21439 6.25972 7.21439C6.01094 7.21439 5.80966 7.41567 5.80966 7.66445C5.80966 7.91323 6.01094 8.11451 6.25972 8.11451ZM10.5555 5.75554L11.9395 6.55829L7.43237 14.3305L6.04834 13.5277L10.5555 5.75554Z" fill="#686B78"/>
</g>
<defs>
<clipPath id="clip0_13_168">
<rect width="19" height="19" fill="white" transform="translate(0 0.0760498)"/>
</clipPath>
</defs>
</svg>
