<svg width="18" height="20" viewBox="0 0 18 20" fill="none" xmlns="http://www.w3.org/2000/svg">
<g clip-path="url(#clip0_13_157)">
<path d="M8.99392 8.97943C6.48061 8.97943 4.44317 6.98634 4.44317 4.52774C4.44317 2.06914 6.48061 0.0760498 8.99392 0.0760498C11.5072 0.0760498 13.5447 2.06914 13.5447 4.52774C13.5447 6.98634 11.5072 8.97943 8.99392 8.97943ZM8.99392 7.41904C10.6263 7.41904 11.9496 6.12456 11.9496 4.52774C11.9496 2.93092 10.6263 1.63644 8.99392 1.63644C7.36156 1.63644 6.03828 2.93092 6.03828 4.52774C6.03828 6.12456 7.36156 7.41904 8.99392 7.41904ZM18.5 19.076H-0.5L0.46414 15.6799L1.38696 12.5005C1.76346 11.1909 3.136 10.1727 4.52947 10.1727H13.4584C14.8484 10.1727 16.2245 11.1914 16.6009 12.5005L17.7007 16.3258C17.7245 16.4086 17.744 16.4915 17.7591 16.5743L18.5 19.076ZM16.2143 16.9654L16.1924 16.8691C16.1861 16.8301 16.1771 16.7898 16.1652 16.7483L15.0653 12.9229C14.8825 12.2871 14.1341 11.7331 13.4584 11.7331H4.52947C3.85097 11.7331 3.10561 12.286 2.92249 12.9229L1.68121 17.2403L1.59846 17.5157H16.3772L16.2143 16.9654Z" fill="#686B78"/>
</g>
<defs>
<clipPath id="clip0_13_157">
<rect width="18" height="19" fill="white" transform="translate(0 0.0760498)"/>
</clipPath>
</defs>
</svg>
