<svg width="20" height="18" viewBox="0 0 20 18" fill="none" xmlns="http://www.w3.org/2000/svg">
<path d="M9.82869 1.63117C9.88233 1.46483 10.1177 1.46483 10.1713 1.63117L11.9699 7.2081C11.9939 7.28259 12.0633 7.33302 12.1416 7.33285L18.0014 7.32004C18.1762 7.31966 18.2489 7.54348 18.1073 7.6459L13.3591 11.0798C13.2956 11.1257 13.2691 11.2073 13.2935 11.2817L15.1164 16.8507C15.1708 17.0168 14.9804 17.1551 14.8392 17.0521L10.1061 13.5974C10.0429 13.5513 9.9571 13.5513 9.89388 13.5974L5.16075 17.0521C5.01958 17.1551 4.82919 17.0168 4.88356 16.8507L6.70652 11.2817C6.73087 11.2073 6.70435 11.1257 6.64093 11.0798L1.89274 7.6459C1.75113 7.54348 1.82385 7.31966 1.99862 7.32004L7.8584 7.33285C7.93667 7.33302 8.00608 7.28259 8.0301 7.2081L9.82869 1.63117Z" stroke="#FF7622" stroke-width="1.8"/>
</svg>
