<svg width="16" height="16" viewBox="0 0 16 16" fill="none" xmlns="http://www.w3.org/2000/svg">
<path d="M12.3732 5.16667H3.62651C3.51117 5.16667 3.41916 5.26467 3.42716 5.38L3.87317 12.1333C3.9465 13.1867 4.49984 14 5.87317 14H10.1265C11.4998 14 12.0532 13.1867 12.1265 12.1333L12.5725 5.38C12.5798 5.26467 12.4885 5.16667 12.3732 5.16667ZM9.6665 9.83333H6.33317C6.05717 9.83333 5.83317 9.60933 5.83317 9.33333C5.83317 9.05733 6.05717 8.83333 6.33317 8.83333H9.6665C9.9425 8.83333 10.1665 9.05733 10.1665 9.33333C10.1665 9.60933 9.9425 9.83333 9.6665 9.83333ZM13.8332 4C13.8332 4.276 13.6092 4.5 13.3332 4.5H2.6665C2.3905 4.5 2.1665 4.276 2.1665 4C2.1665 3.724 2.3905 3.5 2.6665 3.5H5.47583C5.53783 3.37867 5.58583 3.24134 5.63717 3.088L5.77183 2.68333C5.90783 2.27533 6.28983 2 6.7205 2H9.27917C9.70984 2 10.0918 2.27533 10.2278 2.68333L10.3625 3.088C10.4138 3.24134 10.4618 3.37867 10.5238 3.5H13.3332C13.6092 3.5 13.8332 3.724 13.8332 4Z" fill="#FF5456" fill-opacity="0.7"/>
</svg>
